<svg width="500" height="112" viewBox="0 0 369 83" class="css-1j8o68f">
  <defs id="SvgjsDefs2669"/>
  <g id="SvgjsG2670" featurekey="PG4fjM-0" transform="matrix(0.9259259259259258,0,0,0.9259259259259258,-4.629629629629629,-4.629629629629629)" fill="#f0f0f0">
    <g xmlns="http://www.w3.org/2000/svg">
      <g>
        <g>
          <path d="M50,11c21.5,0,39,17.5,39,39S71.5,89,50,89S11,71.5,11,50S28.5,11,50,11 M50,5C25.1,5,5,25.1,5,50s20.1,45,45,45     s45-20.1,45-45S74.9,5,50,5L50,5z"/>
        </g>
      </g>
      <path d="M55,75H45v-5c0-2.8,2.2-5,5-5h0c2.8,0,5,2.2,5,5V75z"/>
      <rect x="25" y="35" width="10" height="20"/>
      <rect x="65" y="35" width="10" height="20"/>
    </g>
  </g>
  <g id="SvgjsG2671" featurekey="jxYttZ-0" transform="matrix(3.4758424909426635,0,0,3.4758424909426635,102.3048321647758,-2.3792124547133184)" fill="#47abff">
    <path d="M7.24 20 l-1.26 0 l-5.78 -15 l2.38 0 l4.04 11.04 l4.02 -11.04 l2.38 0 z M23.740000000000002 15.08 l0 0.74 l-7.78 0 c0 1.82 1.74 2.7 3.02 2.7 c0.94 0 1.98 -0.5 2.54 -1.3 l1.42 1.28 c-0.66 0.9 -1.74 1.7 -3.96 1.7 c-3.2 0 -5.16 -2.18 -5.16 -5.12 s1.9 -5.14 4.96 -5.14 s4.46 1.7 4.88 4.18 c0.06 0.32 0.08 0.64 0.08 0.96 z M16 14.120000000000001 l5.58 0 c0 -1.6 -1.28 -2.48 -2.8 -2.48 s-2.78 1.02 -2.78 2.48 z M31.68 10.24 l-0.44 1.62 c-0.14 -0.08 -0.58 -0.22 -0.94 -0.22 c-1.7 0 -2.5 1.62 -2.5 3.62 l0 4.74 l-2.06 0 l0 -9.88 l2.06 0 l0 1.4 c0.24 -0.92 1.3 -1.58 2.48 -1.58 c0.54 0 1.12 0.14 1.4 0.3 z M35.24 10.12 l0 9.88 l-2.06 0 l0 -9.88 l2.06 0 z M35.34 6.5 c0 0.64 -0.5 1.14 -1.14 1.14 c-0.62 0 -1.12 -0.5 -1.12 -1.14 c0 -0.62 0.5 -1.12 1.12 -1.12 c0.64 0 1.14 0.5 1.14 1.12 z M37.739999999999995 15.08 c0 -2.94 2.1 -5.14 4.94 -5.14 c0.98 0 2.18 0.42 2.84 0.96 l0 -5.9 l2.08 0 l0 15 l-2.08 0 l0 -0.74 c-0.78 0.58 -1.86 0.94 -2.84 0.94 c-2.84 0 -4.94 -2.18 -4.94 -5.12 z M39.82 15.08 c0 2 1.38 3.44 3.06 3.44 c1.12 0 2.12 -0.52 2.64 -1.58 c0.28 -0.54 0.44 -1.18 0.44 -1.86 s-0.16 -1.32 -0.44 -1.88 c-0.52 -1.06 -1.52 -1.56 -2.64 -1.56 c-1.68 0 -3.06 1.42 -3.06 3.44 z M54.62 9.92 c2.84 0 3.98 1.72 3.98 3.18 l0 6.9 l-2.06 0 l0 -1.08 c-0.72 0.98 -2 1.26 -2.8 1.26 c-2.26 0 -3.74 -1.32 -3.74 -3.08 c0 -2.46 1.84 -3.34 3.74 -3.34 l2.8 0 l0 -0.66 c0 -0.62 -0.24 -1.48 -1.92 -1.48 c-0.94 0 -1.8 0.5 -2.36 1.28 l-1.42 -1.28 c0.94 -1.04 2.28 -1.7 3.78 -1.7 z M56.53999999999999 16.92 l0 -1.48 l-2.52 0 c-1.22 0 -2.08 0.62 -1.94 1.74 c0.12 0.94 0.88 1.32 1.94 1.32 c1.9 0 2.52 -0.9 2.52 -1.58 z M64.88 18.36 c0.64 0.26 1.14 0.08 1.44 -0.06 l0 1.6 c-0.26 0.16 -0.64 0.3 -1.18 0.3 c-1.18 0 -2.22 -0.38 -2.86 -1.42 c-0.6 -1 -0.6 -1.54 -0.6 -3.1 l0 -3.88 l-1.2 0 l0 -1.68 l1.2 0 l0 -3.12 l2.06 0 l0 3.12 l2.58 0 l0 1.68 l-2.58 0 l0 3.88 c0 1.64 0.16 2.24 1.14 2.68 z M72.94 9.92 c2.84 0 3.98 1.72 3.98 3.18 l0 6.9 l-2.06 0 l0 -1.08 c-0.72 0.98 -2 1.26 -2.8 1.26 c-2.26 0 -3.74 -1.32 -3.74 -3.08 c0 -2.46 1.84 -3.34 3.74 -3.34 l2.8 0 l0 -0.66 c0 -0.62 -0.24 -1.48 -1.92 -1.48 c-0.94 0 -1.8 0.5 -2.36 1.28 l-1.42 -1.28 c0.94 -1.04 2.28 -1.7 3.78 -1.7 z M74.86 16.92 l0 -1.48 l-2.52 0 c-1.22 0 -2.08 0.62 -1.94 1.74 c0.12 0.94 0.88 1.32 1.94 1.32 c1.9 0 2.52 -0.9 2.52 -1.58 z"/>
  </g>
</svg>
